<svg xmlns="http://www.w3.org/2000/svg" xmlns:xlink="http://www.w3.org/1999/xlink" width="800" zoomAndPan="magnify" viewBox="0 0 600 299.999988" height="400" preserveAspectRatio="xMidYMid meet" version="1.0"><defs><g/></defs><rect x="-60" width="720" fill="#ffffff" y="-29.999999" height="359.999986" fill-opacity="1"/><rect x="-60" width="720" fill="#ffffff" y="-29.999999" height="359.999986" fill-opacity="1"/><g fill="#5a3825" fill-opacity="1"><g transform="translate(0.000012, 192.507511)"><g><path d="M 66.734375 0 C 57.847656 -13.957031 46.46875 -28.289062 32.59375 -43 L 31.109375 -43 L 31.109375 -12.453125 C 31.109375 -10.265625 31.734375 -8.507812 32.984375 -7.1875 C 34.242188 -5.863281 37.5 -4.957031 42.75 -4.46875 L 42.75 0 L 6.3125 0 L 6.3125 -4.46875 C 11.0625 -4.875 13.867188 -5.265625 14.734375 -5.640625 C 15.609375 -6.015625 16.351562 -6.695312 16.96875 -7.6875 C 17.59375 -8.675781 17.90625 -9.992188 17.90625 -11.640625 L 17.90625 -75.09375 C 17.90625 -80.050781 14.039062 -82.859375 6.3125 -83.515625 L 6.3125 -87.921875 L 42.75 -87.921875 L 42.75 -83.515625 C 38.375 -83.148438 35.335938 -82.488281 33.640625 -81.53125 C 31.953125 -80.582031 31.109375 -78.664062 31.109375 -75.78125 L 31.109375 -45.421875 L 32.21875 -45.421875 C 41.101562 -52.890625 48.363281 -59.90625 54 -66.46875 C 59.632812 -73.039062 62.453125 -77.691406 62.453125 -80.421875 C 62.453125 -82.117188 59.394531 -83.148438 53.28125 -83.515625 L 53.28125 -87.921875 L 86.3125 -87.921875 L 86.3125 -83.515625 C 83.914062 -83.515625 81.425781 -83.125 78.84375 -82.34375 C 76.257812 -81.5625 74.515625 -80.796875 73.609375 -80.046875 C 72.703125 -79.304688 69.769531 -76.085938 64.8125 -70.390625 C 57.375 -61.921875 50.703125 -54.875 44.796875 -49.25 C 51.078125 -42.144531 58.222656 -33.578125 66.234375 -23.546875 C 71.890625 -16.398438 75.53125 -12.019531 77.15625 -10.40625 C 78.789062 -8.800781 80.597656 -7.488281 82.578125 -6.46875 C 84.566406 -5.457031 87.503906 -4.789062 91.390625 -4.46875 L 91.390625 0 Z M 66.734375 0 "/></g></g></g><g fill="#5a3825" fill-opacity="1"><g transform="translate(88.032867, 192.507511)"><g><path d="M 17.28125 1.234375 C 14.925781 1.234375 12.910156 0.421875 11.234375 -1.203125 C 9.566406 -2.835938 8.734375 -4.8125 8.734375 -7.125 C 8.734375 -9.394531 9.566406 -11.375 11.234375 -13.0625 C 12.910156 -14.757812 14.925781 -15.609375 17.28125 -15.609375 C 19.59375 -15.609375 21.585938 -14.769531 23.265625 -13.09375 C 24.941406 -11.425781 25.78125 -9.4375 25.78125 -7.125 C 25.78125 -4.8125 24.941406 -2.835938 23.265625 -1.203125 C 21.585938 0.421875 19.59375 1.234375 17.28125 1.234375 Z M 17.28125 1.234375 "/></g></g></g><g fill="#5a3825" fill-opacity="1"><g transform="translate(122.291958, 192.507511)"><g><path d="M 5.828125 0 L 5.828125 -4.46875 C 10.785156 -4.832031 14.035156 -5.53125 15.578125 -6.5625 C 17.128906 -7.59375 17.90625 -9.390625 17.90625 -11.953125 L 17.90625 -75.09375 C 17.90625 -80.09375 14.039062 -82.898438 6.3125 -83.515625 L 6.3125 -87.921875 L 46.96875 -87.921875 C 54.320312 -87.921875 60.398438 -86.253906 65.203125 -82.921875 C 70.015625 -79.597656 72.421875 -74.882812 72.421875 -68.78125 C 72.421875 -57.832031 65.503906 -50.722656 51.671875 -47.453125 L 51.671875 -46.96875 C 68.734375 -44.40625 77.265625 -36.703125 77.265625 -23.859375 C 77.265625 -16.671875 74.378906 -10.894531 68.609375 -6.53125 C 62.847656 -2.175781 55.835938 0 47.578125 0 Z M 31.109375 -82.71875 L 31.109375 -49.015625 L 38.96875 -49.015625 C 51.40625 -49.015625 57.625 -55.1875 57.625 -67.53125 C 57.625 -77.820312 52.128906 -82.96875 41.140625 -82.96875 C 37.421875 -82.96875 34.078125 -82.882812 31.109375 -82.71875 Z M 31.109375 -43.796875 L 31.109375 -12.828125 C 31.109375 -7.578125 35.070312 -4.953125 43 -4.953125 C 55.675781 -4.953125 62.015625 -12.015625 62.015625 -26.140625 C 62.015625 -31.597656 60.21875 -35.945312 56.625 -39.1875 C 53.03125 -42.425781 48.117188 -44.046875 41.890625 -44.046875 C 37.054688 -44.046875 33.460938 -43.960938 31.109375 -43.796875 Z M 31.109375 -43.796875 "/></g></g></g><g fill="#5a3825" fill-opacity="1"><g transform="translate(205.244803, 192.507511)"><g><path d="M 17.28125 1.234375 C 14.925781 1.234375 12.910156 0.421875 11.234375 -1.203125 C 9.566406 -2.835938 8.734375 -4.8125 8.734375 -7.125 C 8.734375 -9.394531 9.566406 -11.375 11.234375 -13.0625 C 12.910156 -14.757812 14.925781 -15.609375 17.28125 -15.609375 C 19.59375 -15.609375 21.585938 -14.769531 23.265625 -13.09375 C 24.941406 -11.425781 25.78125 -9.4375 25.78125 -7.125 C 25.78125 -4.8125 24.941406 -2.835938 23.265625 -1.203125 C 21.585938 0.421875 19.59375 1.234375 17.28125 1.234375 Z M 17.28125 1.234375 "/></g></g></g><g fill="#5a3825" fill-opacity="1"><g transform="translate(239.503894, 192.507511)"><g><path d="M 91.078125 -35.125 C 90.578125 -35.039062 89.976562 -34.957031 89.28125 -34.875 C 85.5625 -34.300781 83.03125 -33.5 81.6875 -32.46875 C 80.34375 -31.4375 79.671875 -29.535156 79.671875 -26.765625 L 79.671875 -14.8125 C 79.671875 -10.144531 79.753906 -7.066406 79.921875 -5.578125 C 68.859375 -0.492188 58.078125 2.046875 47.578125 2.046875 C 35.515625 2.046875 25.375 -2.1875 17.15625 -10.65625 C 8.9375 -19.125 4.828125 -29.988281 4.828125 -43.25 C 4.828125 -56.71875 9.03125 -67.847656 17.4375 -76.640625 C 25.84375 -85.441406 36.367188 -89.84375 49.015625 -89.84375 C 57.316406 -89.84375 64.875 -87.816406 71.6875 -83.765625 L 74.21875 -87.921875 L 79.1875 -87.921875 L 79.671875 -57.25 L 74.59375 -57.25 C 70.175781 -75.507812 61.503906 -84.640625 48.578125 -84.640625 C 39.898438 -84.640625 32.957031 -81.035156 27.75 -73.828125 C 22.550781 -66.617188 19.953125 -56.648438 19.953125 -43.921875 C 19.953125 -31.910156 22.707031 -22.15625 28.21875 -14.65625 C 33.738281 -7.15625 41.125 -3.40625 50.375 -3.40625 C 56.9375 -3.40625 62.390625 -5.140625 66.734375 -8.609375 L 67.21875 -14.5625 L 67.21875 -25.65625 C 67.21875 -29.039062 66.347656 -31.351562 64.609375 -32.59375 C 62.878906 -33.832031 58.898438 -34.675781 52.671875 -35.125 L 52.671875 -39.71875 L 91.078125 -39.71875 Z M 91.078125 -35.125 "/></g></g></g><g fill="#5a3825" fill-opacity="1"><g transform="translate(331.501634, 192.507511)"><g><path d="M 38.46875 -55.578125 C 33.019531 -55.285156 28.519531 -52.289062 24.96875 -46.59375 L 24.96875 -11.03125 C 24.96875 -8.800781 25.679688 -7.164062 27.109375 -6.125 C 28.535156 -5.09375 31.722656 -4.414062 36.671875 -4.09375 L 36.671875 0 L 4.46875 0 L 4.46875 -4.09375 L 7.4375 -4.40625 C 11.4375 -4.6875 13.4375 -6.6875 13.4375 -10.40625 L 13.4375 -48.078125 C 13.4375 -53.453125 10.21875 -56.238281 3.78125 -56.4375 L 3.78125 -60.53125 L 24.109375 -61.765625 L 24.96875 -60.90625 L 24.96875 -52.421875 L 25.28125 -52.421875 C 30.601562 -59.191406 36.300781 -62.578125 42.375 -62.578125 C 44.976562 -62.578125 47.101562 -61.738281 48.75 -60.0625 C 50.40625 -58.394531 51.234375 -56.09375 51.234375 -53.15625 C 51.234375 -50.800781 50.664062 -48.878906 49.53125 -47.390625 C 48.394531 -45.910156 46.859375 -45.171875 44.921875 -45.171875 C 42.773438 -45.171875 41.050781 -45.71875 39.75 -46.8125 C 38.445312 -47.90625 37.796875 -49.257812 37.796875 -50.875 C 37.796875 -52.101562 38.019531 -53.671875 38.46875 -55.578125 Z M 38.46875 -55.578125 "/></g></g></g><g fill="#5a3825" fill-opacity="1"><g transform="translate(383.54076, 192.507511)"><g><path d="M 33.640625 1.921875 C 25.460938 1.921875 18.535156 -1.09375 12.859375 -7.125 C 7.179688 -13.15625 4.34375 -20.878906 4.34375 -30.296875 C 4.34375 -39.878906 7.117188 -47.695312 12.671875 -53.75 C 18.222656 -59.800781 25.503906 -62.828125 34.515625 -62.828125 C 43.265625 -62.828125 50.351562 -59.882812 55.78125 -54 C 61.21875 -48.113281 63.9375 -40.523438 63.9375 -31.234375 C 63.9375 -21.566406 61.171875 -13.625 55.640625 -7.40625 C 50.109375 -1.1875 42.773438 1.921875 33.640625 1.921875 Z M 34.390625 -58.109375 C 28.804688 -58.109375 24.523438 -55.679688 21.546875 -50.828125 C 18.578125 -45.984375 17.09375 -39.488281 17.09375 -31.34375 C 17.09375 -22.71875 18.585938 -15.800781 21.578125 -10.59375 C 24.578125 -5.382812 28.847656 -2.78125 34.390625 -2.78125 C 39.671875 -2.78125 43.773438 -5.363281 46.703125 -10.53125 C 49.640625 -15.695312 51.109375 -22.554688 51.109375 -31.109375 C 51.109375 -39.453125 49.671875 -46.035156 46.796875 -50.859375 C 43.929688 -55.691406 39.796875 -58.109375 34.390625 -58.109375 Z M 34.390625 -58.109375 "/></g></g></g><g fill="#5a3825" fill-opacity="1"><g transform="translate(451.93504, 192.507511)"><g><path d="M 50.125 0.25 L 49.140625 -0.625 L 49.140625 -8.359375 L 48.703125 -8.359375 C 42.796875 -1.753906 36.039062 1.546875 28.4375 1.546875 C 17.320312 1.546875 11.765625 -5.347656 11.765625 -19.140625 L 11.765625 -48.328125 C 11.765625 -53.410156 8.566406 -56.070312 2.171875 -56.3125 L 2.171875 -60.40625 L 22.609375 -61.765625 L 23.484375 -60.90625 L 23.484375 -18.53125 C 23.484375 -14.394531 24.429688 -11.140625 26.328125 -8.765625 C 28.234375 -6.390625 30.671875 -5.203125 33.640625 -5.203125 C 40.128906 -5.203125 45.253906 -8.195312 49.015625 -14.1875 L 49.015625 -48.828125 C 49.015625 -50.554688 48.472656 -52.113281 47.390625 -53.5 C 46.316406 -54.882812 45.210938 -55.660156 44.078125 -55.828125 C 42.941406 -55.992188 40.722656 -56.15625 37.421875 -56.3125 L 37.421875 -60.40625 L 59.671875 -61.765625 L 60.65625 -60.90625 L 60.65625 -12.453125 C 60.65625 -7.578125 63.734375 -5.160156 69.890625 -5.203125 L 69.890625 -1.109375 Z M 50.125 0.25 "/></g></g></g><g fill="#5a3825" fill-opacity="1"><g transform="translate(524.913718, 192.507511)"><g><path d="M 24.34375 -2.546875 L 23.859375 -2.546875 L 23.859375 15.859375 C 23.859375 17.960938 24.546875 19.613281 25.921875 20.8125 C 27.304688 22.007812 30.726562 22.859375 36.1875 23.359375 L 36.1875 27.515625 L 2.046875 27.515625 L 2.046875 23.359375 C 6.960938 23.148438 9.90625 22.445312 10.875 21.25 C 11.84375 20.050781 12.328125 18.503906 12.328125 16.609375 L 12.328125 -48.328125 C 12.328125 -53.453125 8.898438 -56.15625 2.046875 -56.4375 L 2.046875 -60.53125 L 22.859375 -61.765625 L 23.734375 -61.03125 L 23.734375 -54.15625 L 24.21875 -54.03125 C 29.59375 -59.894531 35.441406 -62.828125 41.765625 -62.828125 C 49.066406 -62.828125 55.269531 -59.800781 60.375 -53.75 C 65.476562 -47.695312 68.03125 -40.023438 68.03125 -30.734375 C 68.03125 -21.441406 65.171875 -13.71875 59.453125 -7.5625 C 53.734375 -1.40625 46.988281 1.671875 39.21875 1.671875 C 32.8125 1.671875 27.851562 0.265625 24.34375 -2.546875 Z M 23.859375 -49.140625 L 23.859375 -12.953125 C 23.859375 -11.753906 25.132812 -9.78125 27.6875 -7.03125 C 30.25 -4.28125 33.703125 -2.90625 38.046875 -2.90625 C 43.046875 -2.90625 47.132812 -5.320312 50.3125 -10.15625 C 53.488281 -14.988281 55.078125 -21.660156 55.078125 -30.171875 C 55.078125 -37.734375 53.515625 -43.898438 50.390625 -48.671875 C 47.273438 -53.441406 42.867188 -55.828125 37.171875 -55.828125 C 32.085938 -55.828125 27.648438 -53.597656 23.859375 -49.140625 Z M 23.859375 -49.140625 "/></g></g></g><g fill="#5a3825" fill-opacity="1"><g transform="translate(597.349215, 192.507511)"><g/></g></g><path fill="#26110d" d="M 0 0 L 600 0 L 600 30 L 0 30 Z M 0 0 " fill-opacity="1" fill-rule="nonzero"/></svg>